<?xml version="1.0" encoding="UTF-8"?>
<!DOCTYPE svg PUBLIC "-//W3C//DTD SVG 1.1//EN" "http://www.w3.org/Graphics/SVG/1.1/DTD/svg11.dtd">
<svg xmlns="http://www.w3.org/2000/svg" version="1.1" width="602px" height="376px" style="shape-rendering:geometricPrecision; text-rendering:geometricPrecision; image-rendering:optimizeQuality; fill-rule:evenodd; clip-rule:evenodd" xmlns:xlink="http://www.w3.org/1999/xlink">
<g><path style="opacity:1" fill="#efefef" d="M -0.5,-0.5 C 200.167,-0.5 400.833,-0.5 601.5,-0.5C 601.5,124.833 601.5,250.167 601.5,375.5C 400.833,375.5 200.167,375.5 -0.5,375.5C -0.5,250.167 -0.5,124.833 -0.5,-0.5 Z"/></g>
<g><path style="opacity:1" fill="#2eb4bb" d="M 287.5,59.5 C 290.187,59.3359 292.854,59.5026 295.5,60C 297.768,61.5519 300.268,62.3852 303,62.5C 316.718,58.4595 329.552,60.6261 341.5,69C 350.668,77.8393 355.668,88.6726 356.5,101.5C 375.15,111.46 383.317,127.127 381,148.5C 379.746,165.732 371.413,178.065 356,185.5C 356.003,213.19 342.337,228.857 315,232.5C 310.855,231.092 306.855,229.425 303,227.5C 299.361,229.117 295.694,230.783 292,232.5C 264.23,229.066 250.23,213.4 250,185.5C 235.062,178.649 226.729,166.982 225,150.5C 222.066,128.366 230.233,112.033 249.5,101.5C 251.384,77.6206 264.051,63.6206 287.5,59.5 Z"/></g>
<g><path style="opacity:1" fill="#eeefef" d="M 299.5,177.5 C 300.496,192.991 300.83,208.658 300.5,224.5C 292.787,229.393 284.787,229.56 276.5,225C 279.667,221.833 282.833,218.667 286,215.5C 286.563,214.275 286.23,213.275 285,212.5C 281.318,216.349 277.485,220.016 273.5,223.5C 258.521,214.875 252.021,201.875 254,184.5C 262.803,176.204 270.97,167.537 278.5,158.5C 277.448,158.351 276.448,158.517 275.5,159C 271.954,162.882 268.121,166.382 264,169.5C 259.879,166.382 256.046,162.882 252.5,159C 251.552,158.517 250.552,158.351 249.5,158.5C 252.323,164.004 256.323,168.671 261.5,172.5C 258.349,175.15 255.349,177.984 252.5,181C 249.298,180.914 246.298,179.914 243.5,178C 238.917,174.088 235.083,169.588 232,164.5C 231.009,162.553 230.675,160.553 231,158.5C 237.709,151.456 244.709,144.789 252,138.5C 256.121,141.618 259.954,145.118 263.5,149C 264.448,149.483 265.448,149.649 266.5,149.5C 266.649,148.448 266.483,147.448 266,146.5C 262.292,142.623 258.458,138.957 254.5,135.5C 260.668,130.678 265.668,125.011 269.5,118.5C 268.448,118.351 267.448,118.517 266.5,119C 254.333,131.167 242.167,143.333 230,155.5C 224.985,138.059 228.818,122.893 241.5,110C 244.585,108.04 247.752,106.207 251,104.5C 254.7,108.535 258.7,112.202 263,115.5C 264.23,114.725 264.563,113.725 264,112.5C 260.667,109.167 257.333,105.833 254,102.5C 253.274,82.8967 262.274,70.2301 281,64.5C 281.667,72.8333 281.667,81.1667 281,89.5C 278.568,92.6881 275.901,95.6881 273,98.5C 272.5,100.667 273.333,101.5 275.5,101C 277.979,97.6868 280.645,94.5202 283.5,91.5C 286.041,95.2518 289.041,98.5852 292.5,101.5C 293.614,100.277 293.781,98.9437 293,97.5C 290.667,94.8333 288.333,92.1667 286,89.5C 285.5,80.8397 285.334,72.1731 285.5,63.5C 288.493,62.8654 291.493,62.6987 294.5,63C 296.336,64.419 298.336,65.5857 300.5,66.5C 301.666,79.1535 301.833,91.8202 301,104.5C 294.969,110.866 288.636,116.866 282,122.5C 281.517,123.448 281.351,124.448 281.5,125.5C 282.552,125.649 283.552,125.483 284.5,125C 290.376,118.788 296.543,112.955 303,107.5C 308.478,112.978 313.978,118.478 319.5,124C 318.09,128.581 319.757,131.414 324.5,132.5C 329.078,131.132 330.578,128.132 329,123.5C 326.834,121.879 324.334,121.045 321.5,121C 316,115.5 310.5,110 305,104.5C 304.5,91.5043 304.333,78.5043 304.5,65.5C 307.917,65.2037 311.084,64.2037 314,62.5C 316.792,63.2156 319.626,63.5489 322.5,63.5C 322.666,68.1785 322.499,72.8452 322,77.5C 317.717,80.7123 317.55,84.2123 321.5,88C 328.166,88.9959 330.666,86.1626 329,79.5C 328.311,78.6433 327.478,77.9767 326.5,77.5C 325.509,73.5546 325.176,69.5546 325.5,65.5C 343.107,70.4492 352.107,82.1159 352.5,100.5C 344.826,100.666 337.159,100.5 329.5,100C 325.791,95.3001 322.291,95.4667 319,100.5C 318.447,104.506 320.114,107.173 324,108.5C 326.328,108.183 328.161,107.016 329.5,105C 338.167,104.333 346.833,104.333 355.5,105C 365.181,108.844 371.514,115.677 374.5,125.5C 367.137,125.831 359.803,125.497 352.5,124.5C 349.71,120.953 346.543,120.62 343,123.5C 341.276,125.769 341.276,128.103 343,130.5C 346.457,133.244 349.624,132.911 352.5,129.5C 360.472,128.502 368.472,128.169 376.5,128.5C 377.313,136.138 377.646,143.804 377.5,151.5C 372.156,151.666 366.823,151.499 361.5,151C 358.203,146.607 354.703,146.441 351,150.5C 350.041,157.372 352.874,159.705 359.5,157.5C 360.287,156.758 360.953,155.925 361.5,155C 366.489,154.501 371.489,154.334 376.5,154.5C 374.351,167.484 367.184,176.484 355,181.5C 348.71,176.212 342.71,170.545 337,164.5C 338.417,158.249 335.917,155.416 329.5,156C 326.488,158.221 325.821,161.054 327.5,164.5C 329.882,166.071 332.549,166.904 335.5,167C 340.634,173.135 346.134,178.969 352,184.5C 353.981,206.911 344.315,221.244 323,227.5C 322.333,223.167 322.333,218.833 323,214.5C 326.106,212.658 327.106,209.992 326,206.5C 322.667,202.5 319.333,202.5 316,206.5C 314.832,209.893 315.666,212.559 318.5,214.5C 319.493,219.12 319.827,223.786 319.5,228.5C 317.143,228.663 314.81,228.497 312.5,228C 309.89,226.519 307.223,225.352 304.5,224.5C 304.5,211.5 304.5,198.5 304.5,185.5C 311.841,185.334 319.174,185.5 326.5,186C 328.179,189.297 330.846,190.297 334.5,189C 339.005,184.186 338.171,180.686 332,178.5C 329.672,178.817 327.839,179.984 326.5,182C 319.174,182.5 311.841,182.666 304.5,182.5C 304.5,169.833 304.5,157.167 304.5,144.5C 308.64,143.715 311.973,144.881 314.5,148C 318.894,148.783 321.561,146.949 322.5,142.5C 321.132,137.922 318.132,136.422 313.5,138C 310.276,140.477 306.61,141.143 302.5,140C 299.833,137.333 297.167,134.667 294.5,132C 292.333,131.5 291.5,132.333 292,134.5C 294.682,137.35 297.516,140.016 300.5,142.5C 295.806,147.86 290.806,152.86 285.5,157.5C 286.035,159.101 287.035,159.601 288.5,159C 292.667,154.833 296.833,150.667 301,146.5C 301.667,154.833 301.667,163.167 301,171.5C 290.986,181.347 281.152,191.347 271.5,201.5C 272.035,203.101 273.035,203.601 274.5,203C 277.333,200.167 280.167,197.333 283,194.5C 286.185,198.541 290.019,201.541 294.5,203.5C 292.541,199.019 289.541,195.185 285.5,192C 290.397,187.271 295.064,182.438 299.5,177.5 Z"/></g>
<g><path style="opacity:1" fill="#e2ecec" d="M 323.5,80.5 C 327.173,81.7076 327.34,83.3743 324,85.5C 323.167,84.6667 322.333,83.8333 321.5,83C 322.381,82.2917 323.047,81.4584 323.5,80.5 Z"/></g>
<g><path style="opacity:1" fill="#e9eeee" d="M 322.5,100.5 C 323.833,100.5 325.167,100.5 326.5,100.5C 326.5,101.833 326.5,103.167 326.5,104.5C 325.167,104.5 323.833,104.5 322.5,104.5C 322.5,103.167 322.5,101.833 322.5,100.5 Z"/></g>
<g><path style="opacity:1" fill="#e9eeee" d="M 322.5,124.5 C 323.833,124.5 325.167,124.5 326.5,124.5C 326.5,125.833 326.5,127.167 326.5,128.5C 325.167,128.5 323.833,128.5 322.5,128.5C 322.5,127.167 322.5,125.833 322.5,124.5 Z"/></g>
<g><path style="opacity:1" fill="#eaefef" d="M 346.5,124.5 C 349.956,125.536 350.29,127.203 347.5,129.5C 345.296,128.218 344.962,126.551 346.5,124.5 Z"/></g>
<g><path style="opacity:1" fill="#edefef" d="M 315.5,140.5 C 317.912,140.694 318.912,142.027 318.5,144.5C 317.167,144.5 315.833,144.5 314.5,144.5C 314.433,143.041 314.766,141.708 315.5,140.5 Z"/></g>
<g><path style="opacity:1" fill="#e3eced" d="M 355.5,150.5 C 358.889,151.71 359.223,153.377 356.5,155.5C 353.14,154.209 352.806,152.543 355.5,150.5 Z"/></g>
<g><path style="opacity:1" fill="#d9e9ea" d="M 330.5,158.5 C 335.34,159.188 335.673,160.855 331.5,163.5C 329.296,162.218 328.962,160.551 330.5,158.5 Z"/></g>
<g><path style="opacity:1" fill="#e7eded" d="M 329.5,182.5 C 334.392,182.164 335.225,183.497 332,186.5C 329.98,185.968 329.147,184.635 329.5,182.5 Z"/></g>
<g><path style="opacity:1" fill="#d0e7e8" d="M 300.5,224.5 C 300.83,208.658 300.496,192.991 299.5,177.5C 299.783,176.711 300.283,176.044 301,175.5C 301.828,192.005 301.662,208.339 300.5,224.5 Z"/></g>
<g><path style="opacity:1" fill="#e4ecec" d="M 319.5,207.5 C 322.166,207.066 323.333,208.066 323,210.5C 319.403,212.066 318.237,211.066 319.5,207.5 Z"/></g>
<g><path style="opacity:1" fill="#18afb7" d="M 125.5,253.5 C 133.507,253.334 141.507,253.5 149.5,254C 155.329,256.632 155.995,260.299 151.5,265C 142.167,265.333 132.833,265.667 123.5,266C 120.808,268.632 121.141,270.966 124.5,273C 134.226,274.409 143.56,277.076 152.5,281C 163.604,293.207 162.938,304.874 150.5,316C 147.283,317.637 143.95,318.97 140.5,320C 130.833,320.667 121.167,320.667 111.5,320C 108.009,318.179 106.843,315.346 108,311.5C 108.903,310.299 110.069,309.465 111.5,309C 120.167,308.667 128.833,308.333 137.5,308C 144.972,306.561 148.139,302.061 147,294.5C 144.831,290.99 141.664,288.823 137.5,288C 129.531,287.091 121.864,285.091 114.5,282C 107.664,275.142 106.831,267.642 112,259.5C 116.057,256.215 120.557,254.215 125.5,253.5 Z"/></g>
<g><path style="opacity:1" fill="#17afb7" d="M 177.5,253.5 C 180.368,253.085 182.535,254.085 184,256.5C 183.448,271.821 183.114,287.154 183,302.5C 186.655,309.07 192.155,311.237 199.5,309C 205.859,305.659 208.526,300.326 207.5,293C 205.813,280.87 204.98,268.704 205,256.5C 209.586,252.063 213.252,252.729 216,258.5C 217.996,272.782 218.996,287.116 219,301.5C 216.083,313.918 208.249,320.251 195.5,320.5C 177.367,320.03 169.034,310.696 170.5,292.5C 171.002,281.809 171.836,271.142 173,260.5C 173.53,257.415 175.03,255.082 177.5,253.5 Z"/></g>
<g><path style="opacity:1" fill="#19afb7" d="M 240.5,253.5 C 244.192,252.971 247.358,253.971 250,256.5C 252.667,262.5 255.333,268.5 258,274.5C 259,275.5 260,276.5 261,277.5C 264.803,271.561 267.803,265.227 270,258.5C 276.375,251.377 281.709,252.044 286,260.5C 289.513,279.012 290.846,297.679 290,316.5C 288.309,320.213 285.475,321.379 281.5,320C 280.333,319.5 279.5,318.667 279,317.5C 278.976,302.096 277.976,286.763 276,271.5C 273.861,277.112 271.194,282.446 268,287.5C 263.641,293.601 258.974,293.934 254,288.5C 251.079,283.659 248.412,278.659 246,273.5C 245.667,273.833 245.333,274.167 245,274.5C 243.834,287.801 243.168,301.135 243,314.5C 241.085,320.652 237.419,321.986 232,318.5C 230.015,298.336 231.348,278.336 236,258.5C 237.025,256.313 238.525,254.646 240.5,253.5 Z"/></g>
<g><path style="opacity:1" fill="#17afb7" d="M 311.5,253.5 C 315.192,252.971 318.358,253.971 321,256.5C 323.887,263.942 327.554,270.942 332,277.5C 336.054,269.888 340.221,262.388 344.5,255C 348.999,252.633 352.832,253.467 356,257.5C 360.494,277.263 362.16,297.263 361,317.5C 356.837,321.747 353.171,321.414 350,316.5C 349.986,301.746 348.986,287.08 347,272.5C 344.769,277.731 342.103,282.731 339,287.5C 335.326,293.068 330.992,293.735 326,289.5C 322.493,284.49 319.493,279.157 317,273.5C 315.908,276.044 315.241,278.711 315,281.5C 314.667,292.833 314.333,304.167 314,315.5C 313.727,317.329 312.893,318.829 311.5,320C 308.901,320.769 306.401,320.602 304,319.5C 302.069,315.573 301.236,311.406 301.5,307C 301.903,292.054 303.403,277.22 306,262.5C 306.858,258.763 308.691,255.763 311.5,253.5 Z"/></g>
<g><path style="opacity:1" fill="#09adb5" d="M 379.5,253.5 C 382.652,252.959 385.152,253.959 387,256.5C 387.667,276.833 387.667,297.167 387,317.5C 383.333,321.5 379.667,321.5 376,317.5C 375.333,297.5 375.333,277.5 376,257.5C 376.69,255.65 377.856,254.316 379.5,253.5 Z"/></g>
<g><path style="opacity:1" fill="#1bafb7" d="M 408.5,253.5 C 418.839,253.334 429.172,253.5 439.5,254C 444.414,257.171 444.747,260.837 440.5,265C 432.507,265.5 424.507,265.666 416.5,265.5C 416.5,268.167 416.5,270.833 416.5,273.5C 424.507,273.334 432.507,273.5 440.5,274C 443.333,277.663 443,280.996 439.5,284C 431.841,284.5 424.174,284.666 416.5,284.5C 416.933,295.91 416.433,307.244 415,318.5C 410.49,321.695 406.824,321.028 404,316.5C 403.333,296.833 403.333,277.167 404,257.5C 404.907,255.391 406.407,254.058 408.5,253.5 Z"/></g>
<g><path style="opacity:1" fill="#12aeb6" d="M 451.5,253.5 C 455.273,252.822 458.106,254.156 460,257.5C 462.231,266.309 466.731,273.642 473.5,279.5C 480.029,273.121 484.529,265.454 487,256.5C 490.06,253.064 493.393,252.731 497,255.5C 497.791,259.926 497.457,264.259 496,268.5C 491.88,276.399 486.546,283.399 480,289.5C 479.667,298.833 479.333,308.167 479,317.5C 474.132,321.911 470.132,321.244 467,315.5C 466.832,306.482 466.332,297.482 465.5,288.5C 454.934,280.365 449.434,269.699 449,256.5C 450.045,255.627 450.878,254.627 451.5,253.5 Z"/></g>
</svg>
